<svg width="252" height="58" viewBox="0 0 252 58" fill="none" xmlns="http://www.w3.org/2000/svg">
<circle cx="27.5" cy="29.5" r="27.5" fill="#F64C72"/>
<path d="M24.1029 7.75001C25.8349 4.75001 30.1651 4.75 31.8971 7.75L39.6913 21.25C41.4234 24.25 39.2583 28 35.7942 28H20.2058C16.7417 28 14.5766 24.25 16.3087 21.25L24.1029 7.75001Z" fill="#2F2FA2" stroke="#FAFF00"/>
<path d="M24.1029 50.25C25.8349 53.25 30.1651 53.25 31.8971 50.25L39.6913 36.75C41.4234 33.75 39.2583 30 35.7942 30H20.2058C16.7417 30 14.5766 33.75 16.3087 36.75L24.1029 50.25Z" fill="#2F2FA2" stroke="#FAFF00"/>
<path d="M28 15L28.8981 17.7639H31.8042L29.4531 19.4721L30.3511 22.2361L28 20.5279L25.6489 22.2361L26.5469 19.4721L24.1958 17.7639H27.1019L28 15Z" fill="#FAFF00"/>
<path d="M28 35L28.8981 37.7639H31.8042L29.4531 39.4721L30.3511 42.2361L28 40.5279L25.6489 42.2361L26.5469 39.4721L24.1958 37.7639H27.1019L28 35Z" fill="#FAFF00"/>
<path d="M97.62 24.92L93.16 37.34L89.72 38.36L86.88 30.32L84.64 37.34L81.18 38.36L75.88 24.54L73.9 23.56L74.54 22.26H81.02V23.38L79.62 24.42L83.6 35L85.94 27.7L84.82 24.54L83 23.58L83.64 22.28H90.64V23.4L88.64 24.64L92.18 35.02L95.68 25.06L92.52 23.58L93.18 22.28H99.62L99.64 23.38L97.62 24.92ZM105.078 27.02C106.065 27.02 106.945 27.2533 107.718 27.72C108.492 28.1733 109.092 28.8 109.518 29.6C109.958 30.4 110.178 31.2867 110.178 32.26C110.178 33.3133 109.838 34.3 109.158 35.22C108.478 36.1267 107.625 36.8533 106.598 37.4C105.585 37.9333 104.605 38.2 103.658 38.2C102.685 38.2 101.805 37.9733 101.018 37.52C100.245 37.0533 99.6384 36.42 99.1984 35.62C98.7718 34.82 98.5584 33.9333 98.5584 32.96C98.5584 31.9067 98.8984 30.9267 99.5784 30.02C100.258 29.1 101.105 28.3733 102.118 27.84C103.145 27.2933 104.132 27.02 105.078 27.02ZM103.918 29.34C103.358 29.34 102.932 29.5667 102.638 30.02C102.358 30.46 102.218 31.12 102.218 32C102.218 33.12 102.445 34.0533 102.898 34.8C103.352 35.5333 103.992 35.9 104.818 35.9C105.365 35.9 105.778 35.6733 106.058 35.22C106.352 34.7533 106.498 34.08 106.498 33.2C106.498 32.08 106.272 31.16 105.818 30.44C105.365 29.7067 104.732 29.34 103.918 29.34ZM118.804 29.86C118.324 29.86 117.844 30.0733 117.364 30.5V35.9L120.404 36.7L119.764 38H112.184V36.88L113.964 35.38V30.84L112.184 29.72V28.6L116.344 26.84L117.104 29.06L118.924 27.18C119.204 27.0733 119.531 27.02 119.904 27.02C120.598 27.02 121.191 27.18 121.684 27.5C122.191 27.82 122.544 28.26 122.744 28.82L120.824 31.22H119.564C119.551 30.74 119.484 30.4 119.364 30.2C119.244 29.9867 119.058 29.88 118.804 29.88V29.86ZM129.491 38H123.171V36.88L124.951 35.38V24.44L123.171 23.26V22.14L127.091 20.54H128.351V36.1L130.151 36.7L129.491 38ZM144.165 38H139.625V36.52L137.705 38.04C137.278 38.1467 136.785 38.2 136.225 38.2C135.345 38.2 134.552 37.9733 133.845 37.52C133.152 37.0533 132.605 36.42 132.205 35.62C131.818 34.82 131.625 33.9333 131.625 32.96C131.625 31.9067 131.965 30.9267 132.645 30.02C133.325 29.1 134.172 28.3733 135.185 27.84C136.212 27.2933 137.198 27.02 138.145 27.02C138.678 27.02 139.172 27.1533 139.625 27.42V24.44L137.845 23.26V22.14L141.765 20.54H143.025V36.1L144.825 36.7L144.165 38ZM137.445 35.52C138.232 35.52 138.958 35.3267 139.625 34.94V31.12C139.545 30.6 139.278 30.1733 138.825 29.84C138.372 29.5067 137.758 29.34 136.985 29.34C135.812 29.34 135.225 30.2333 135.225 32.02C135.225 33.0333 135.412 33.8733 135.785 34.54C136.172 35.1933 136.725 35.52 137.445 35.52ZM154.074 30.18C154.781 30.18 155.341 29.9333 155.754 29.44C156.168 28.9467 156.374 28.2667 156.374 27.4C156.374 26.3467 156.121 25.4933 155.614 24.84C155.108 24.1733 154.361 23.84 153.374 23.84C152.721 23.84 152.108 24.04 151.534 24.44V35.94L155.014 36.7L154.354 38H146.034V36.88L147.914 35.4V24.26L145.694 23.58L146.354 22.28H149.674C150.861 22.28 152.028 22.24 153.174 22.16C154.028 22.1067 154.654 22.08 155.054 22.08C156.094 22.08 157.014 22.2867 157.814 22.7C158.614 23.1 159.234 23.6533 159.674 24.36C160.114 25.0667 160.334 25.8533 160.334 26.72C160.334 27.68 159.968 28.58 159.234 29.42C158.501 30.26 157.574 30.92 156.454 31.4C155.334 31.88 154.241 32.0933 153.174 32.04L152.294 31.5L152.954 30.2H154.074V30.18ZM172.63 38H168.07V36.26L165.81 38.04C165.544 38.1467 165.21 38.2 164.81 38.2C163.53 38.2 162.604 37.8867 162.03 37.26C161.47 36.6333 161.19 35.88 161.19 35C161.19 34.48 161.35 33.9733 161.67 33.48C161.99 32.9733 162.45 32.5067 163.05 32.08H168.07V31.74C168.07 31.0067 167.87 30.4667 167.47 30.12C167.07 29.7733 166.537 29.6 165.87 29.6C164.937 29.6 163.717 29.9667 162.21 30.7L161.61 29.56L164.39 27.32C165.07 27.12 165.864 27.02 166.77 27.02C168.264 27.02 169.417 27.36 170.23 28.04C171.057 28.72 171.47 29.7067 171.47 31V36L173.27 36.7L172.63 38ZM165.83 35.52C166.51 35.52 167.257 35.24 168.07 34.68V33.4H164.85C164.744 33.56 164.664 33.7133 164.61 33.86C164.57 33.9933 164.55 34.1467 164.55 34.32C164.55 34.6533 164.664 34.9333 164.89 35.16C165.13 35.3867 165.444 35.5 165.83 35.5V35.52ZM186.011 28.32L180.891 37.98L176.191 43.26L174.931 42.28C175.918 41.0933 176.611 40.0733 177.011 39.22C177.411 38.38 177.638 37.4133 177.691 36.32L175.391 30.76L173.451 29.64V28.52L177.871 26.84L178.631 29.86L180.811 35.18L183.231 30.46L180.371 28.52L181.011 27.22L186.011 27.2V28.32ZM195.559 30.18C196.265 30.18 196.825 29.9333 197.239 29.44C197.652 28.9467 197.859 28.2667 197.859 27.4C197.859 26.3467 197.605 25.4933 197.099 24.84C196.592 24.1733 195.845 23.84 194.859 23.84C194.205 23.84 193.592 24.04 193.019 24.44V35.94L196.499 36.7L195.839 38H187.519V36.88L189.399 35.4V24.26L187.179 23.58L187.839 22.28H191.159C192.345 22.28 193.512 22.24 194.659 22.16C195.512 22.1067 196.139 22.08 196.539 22.08C197.579 22.08 198.499 22.2867 199.299 22.7C200.099 23.1 200.719 23.6533 201.159 24.36C201.599 25.0667 201.819 25.8533 201.819 26.72C201.819 27.68 201.452 28.58 200.719 29.42C199.985 30.26 199.059 30.92 197.939 31.4C196.819 31.88 195.725 32.0933 194.659 32.04L193.779 31.5L194.439 30.2H195.559V30.18ZM209.178 38H202.858V36.88L204.638 35.38V24.44L202.858 23.26V22.14L206.778 20.54H208.038V36.1L209.838 36.7L209.178 38ZM222.552 38H217.992V36.26L215.732 38.04C215.466 38.1467 215.132 38.2 214.732 38.2C213.452 38.2 212.526 37.8867 211.952 37.26C211.392 36.6333 211.112 35.88 211.112 35C211.112 34.48 211.272 33.9733 211.592 33.48C211.912 32.9733 212.372 32.5067 212.972 32.08H217.992V31.74C217.992 31.0067 217.792 30.4667 217.392 30.12C216.992 29.7733 216.459 29.6 215.792 29.6C214.859 29.6 213.639 29.9667 212.132 30.7L211.532 29.56L214.312 27.32C214.992 27.12 215.786 27.02 216.692 27.02C218.186 27.02 219.339 27.36 220.152 28.04C220.979 28.72 221.392 29.7067 221.392 31V36L223.192 36.7L222.552 38ZM215.752 35.52C216.432 35.52 217.179 35.24 217.992 34.68V33.4H214.772C214.666 33.56 214.586 33.7133 214.532 33.86C214.492 33.9933 214.472 34.1467 214.472 34.32C214.472 34.6533 214.586 34.9333 214.812 35.16C215.052 35.3867 215.366 35.5 215.752 35.5V35.52ZM230.616 27.02C231.243 27.02 231.969 27.1 232.796 27.26C233.623 27.4067 234.223 27.5733 234.596 27.76V31.48H233.336C232.829 30.8 232.256 30.2733 231.616 29.9C230.976 29.5267 230.309 29.34 229.616 29.34C229.123 29.34 228.743 29.5733 228.476 30.04C228.223 30.4933 228.096 31.1467 228.096 32C228.096 33.08 228.323 33.9733 228.776 34.68C229.243 35.3867 229.903 35.74 230.756 35.74C231.623 35.74 232.869 35.32 234.496 34.48L235.096 35.62L232.216 37.9C231.456 38.1 230.583 38.2 229.596 38.2C228.623 38.2 227.743 37.9733 226.956 37.52C226.183 37.0533 225.576 36.42 225.136 35.62C224.709 34.82 224.496 33.9333 224.496 32.96C224.496 31.9067 224.809 30.9267 225.436 30.02C226.076 29.1 226.876 28.3733 227.836 27.84C228.796 27.2933 229.723 27.02 230.616 27.02ZM243.77 27.02C245.17 27.02 246.25 27.5533 247.01 28.62C247.783 29.6867 248.157 31.1667 248.13 33.06H240.93C241.063 33.8733 241.35 34.5267 241.79 35.02C242.23 35.5 242.803 35.74 243.51 35.74C244.443 35.74 245.783 35.2733 247.53 34.34L248.13 35.48L245.09 37.9C244.303 38.1 243.39 38.2 242.35 38.2C241.377 38.2 240.497 37.9733 239.71 37.52C238.937 37.0533 238.33 36.42 237.89 35.62C237.463 34.82 237.25 33.9333 237.25 32.96C237.25 31.9067 237.59 30.9267 238.27 30.02C238.95 29.1 239.797 28.3733 240.81 27.84C241.837 27.2933 242.823 27.02 243.77 27.02ZM242.67 29.34C242.083 29.34 241.643 29.54 241.35 29.94C241.057 30.3267 240.897 30.9267 240.87 31.74H244.69C244.583 30.9133 244.383 30.3067 244.09 29.92C243.81 29.5333 243.33 29.34 242.65 29.34H242.67Z" fill="#F64C72"/>
</svg>
